<?xml version="1.0" encoding="UTF-8" standalone="no"?><svg xmlns="http://www.w3.org/2000/svg" xmlns:xlink="http://www.w3.org/1999/xlink" contentScriptType="application/ecmascript" contentStyleType="text/css" height="325px" preserveAspectRatio="none" style="width:300px;height:325px;" version="1.1" viewBox="0 0 300 325" width="300px" zoomAndPan="magnify"><defs><filter height="300%" id="f18l25chn6nstp" width="300%" x="-1" y="-1"><feGaussianBlur result="blurOut" stdDeviation="2.0"/><feColorMatrix in="blurOut" result="blurOut2" type="matrix" values="0 0 0 0 0 0 0 0 0 0 0 0 0 0 0 0 0 0 .4 0"/><feOffset dx="4.0" dy="4.0" in="blurOut2" result="blurOut3"/><feBlend in="SourceGraphic" in2="blurOut3" mode="normal"/></filter></defs><g><!--cluster moban--><polygon fill="#FFFFFF" filter="url(#f18l25chn6nstp)" points="14,16,69,16,76,38.4883,293,38.4883,293,87,14,87,14,16" style="stroke: #000000; stroke-width: 2.0;"/><line style="stroke: #000000; stroke-width: 2.0;" x1="14" x2="76" y1="38.4883" y2="38.4883"/><text fill="#000000" font-family="sans-serif" font-size="14" font-weight="bold" lengthAdjust="spacingAndGlyphs" textLength="49" x="18" y="31.5352">moban</text><!--cluster moban-mako--><polygon fill="#FFFFFF" filter="url(#f18l25chn6nstp)" points="17,247,121,247,128,269.4883,143,269.4883,143,318,17,318,17,247" style="stroke: #000000; stroke-width: 2.0;"/><line style="stroke: #000000; stroke-width: 2.0;" x1="17" x2="128" y1="269.4883" y2="269.4883"/><text fill="#000000" font-family="sans-serif" font-size="14" font-weight="bold" lengthAdjust="spacingAndGlyphs" textLength="98" x="21" y="262.5352">moban-mako</text><!--cluster moban-haml--><polygon fill="#FFFFFF" filter="url(#f18l25chn6nstp)" points="161,247,261,247,268,269.4883,283,269.4883,283,318,161,318,161,247" style="stroke: #000000; stroke-width: 2.0;"/><line style="stroke: #000000; stroke-width: 2.0;" x1="161" x2="268" y1="269.4883" y2="269.4883"/><text fill="#000000" font-family="sans-serif" font-size="14" font-weight="bold" lengthAdjust="spacingAndGlyphs" textLength="94" x="165" y="262.5352">moban-haml</text><!--entity engine factory--><rect fill="#FEFECE" filter="url(#f18l25chn6nstp)" height="36.4883" style="stroke: #A80036; stroke-width: 1.5;" width="118" x="22" y="43"/><rect fill="#FEFECE" height="5" style="stroke: #A80036; stroke-width: 1.5;" width="10" x="17" y="48"/><rect fill="#FEFECE" height="5" style="stroke: #A80036; stroke-width: 1.5;" width="10" x="17" y="69.4883"/><text fill="#000000" font-family="sans-serif" font-size="14" lengthAdjust="spacingAndGlyphs" textLength="98" x="32" y="66.5352">engine factory</text><!--entity jinja2 engine--><rect fill="#FEFECE" filter="url(#f18l25chn6nstp)" height="36.4883" style="stroke: #A80036; stroke-width: 1.5;" width="109" x="175.5" y="43"/><rect fill="#FEFECE" height="5" style="stroke: #A80036; stroke-width: 1.5;" width="10" x="170.5" y="48"/><rect fill="#FEFECE" height="5" style="stroke: #A80036; stroke-width: 1.5;" width="10" x="170.5" y="69.4883"/><text fill="#000000" font-family="sans-serif" font-size="14" lengthAdjust="spacingAndGlyphs" textLength="89" x="185.5" y="66.5352">jinja2 engine</text><!--entity mako engine--><rect fill="#FEFECE" filter="url(#f18l25chn6nstp)" height="36.4883" style="stroke: #A80036; stroke-width: 1.5;" width="109" x="25.5" y="274"/><rect fill="#FEFECE" height="5" style="stroke: #A80036; stroke-width: 1.5;" width="10" x="20.5" y="279"/><rect fill="#FEFECE" height="5" style="stroke: #A80036; stroke-width: 1.5;" width="10" x="20.5" y="300.4883"/><text fill="#000000" font-family="sans-serif" font-size="14" lengthAdjust="spacingAndGlyphs" textLength="89" x="35.5" y="297.5352">mako engine</text><!--entity haml engine--><rect fill="#FEFECE" filter="url(#f18l25chn6nstp)" height="36.4883" style="stroke: #A80036; stroke-width: 1.5;" width="105" x="169.5" y="274"/><rect fill="#FEFECE" height="5" style="stroke: #A80036; stroke-width: 1.5;" width="10" x="164.5" y="279"/><rect fill="#FEFECE" height="5" style="stroke: #A80036; stroke-width: 1.5;" width="10" x="164.5" y="300.4883"/><text fill="#000000" font-family="sans-serif" font-size="14" lengthAdjust="spacingAndGlyphs" textLength="85" x="179.5" y="297.5352">haml engine</text><!--entity lml--><rect fill="#FEFECE" filter="url(#f18l25chn6nstp)" height="36.4883" style="stroke: #A80036; stroke-width: 1.5;" width="41" x="66.5" y="156"/><rect fill="#FEFECE" height="5" style="stroke: #A80036; stroke-width: 1.5;" width="10" x="61.5" y="161"/><rect fill="#FEFECE" height="5" style="stroke: #A80036; stroke-width: 1.5;" width="10" x="61.5" y="182.4883"/><text fill="#000000" font-family="sans-serif" font-size="14" lengthAdjust="spacingAndGlyphs" textLength="21" x="76.5" y="179.5352">lml</text><!--link engine factory to lml--><path d="M81.964,79.1554 C82.9962,98.595 84.6372,129.5012 85.7638,150.7174 " fill="none" id="engine factory-lml" style="stroke: #A80036; stroke-width: 1.0;"/><polygon fill="#A80036" points="86.0384,155.8897,89.5555,146.6903,85.7733,150.8967,81.5668,147.1145,86.0384,155.8897" style="stroke: #A80036; stroke-width: 1.0;"/><text fill="#000000" font-family="sans-serif" font-size="13" lengthAdjust="spacingAndGlyphs" textLength="92" x="85" y="122.5684">get all engines</text><!--link lml to jinja2 engine--><path d="M112.4966,165.3945 C133.3299,157.475 162.7109,144.1959 184,126 C199.4484,112.7961 212.3228,93.3238 220.4854,79.1356 " fill="none" id="lml-jinja2 engine" style="stroke: #A80036; stroke-width: 1.0;"/><polygon fill="#A80036" points="107.6594,167.1956,117.4895,167.8037,112.3451,165.4509,114.6979,160.3065,107.6594,167.1956" style="stroke: #A80036; stroke-width: 1.0;"/><text fill="#000000" font-family="sans-serif" font-size="13" lengthAdjust="spacingAndGlyphs" textLength="48" x="200" y="122.5684">register</text><!--link lml to mako engine--><path d="M85.6137,197.3689 C84.2778,219.8879 82.2852,253.4788 81.0681,273.9941 " fill="none" id="lml-mako engine" style="stroke: #A80036; stroke-width: 1.0; stroke-dasharray: 7.0,7.0;"/><polygon fill="#A80036" points="85.9216,192.1789,81.3956,200.9262,85.6255,197.1701,89.3815,201.4,85.9216,192.1789" style="stroke: #A80036; stroke-width: 1.0;"/><text fill="#000000" font-family="sans-serif" font-size="13" lengthAdjust="spacingAndGlyphs" textLength="48" x="85" y="235.5684">register</text><!--link lml to haml engine--><path d="M111.6127,195.4683 C121.1107,203.7559 132.0631,213.3165 142,222 C162.1502,239.6085 185.1393,259.727 201.2868,273.8631 " fill="none" id="lml-haml engine" style="stroke: #A80036; stroke-width: 1.0; stroke-dasharray: 7.0,7.0;"/><polygon fill="#A80036" points="107.6384,192.0006,111.7901,200.9316,111.4059,195.2878,117.0497,194.9036,107.6384,192.0006" style="stroke: #A80036; stroke-width: 1.0;"/><text fill="#000000" font-family="sans-serif" font-size="13" lengthAdjust="spacingAndGlyphs" textLength="48" x="160" y="235.5684">register</text><!--
@startuml

package "moban" {
[engine factory]
[jinja2 engine]
}

[lml]

package "moban-mako" {
[mako engine]
}

package "moban-haml" {
[haml engine]
}

[engine factory] -> [lml] : get all engines
[lml] <- - [jinja2 engine] : register
[lml] <.. [mako engine] : register
[lml] <.. [haml engine] : register

@enduml

PlantUML version 1.2017.13(Wed May 10 17:52:33 BST 2017)
(GPL source distribution)
Java Runtime: Java(TM) SE Runtime Environment
JVM: Java HotSpot(TM) 64-Bit Server VM
Java Version: 1.8.0_131-b11
Operating System: Mac OS X
OS Version: 10.14.6
Default Encoding: UTF-8
Language: en
Country: GB
--></g></svg>