<?xml version="1.0" encoding="UTF-8" standalone="no"?><svg xmlns="http://www.w3.org/2000/svg" xmlns:xlink="http://www.w3.org/1999/xlink" contentScriptType="application/ecmascript" contentStyleType="text/css" height="494px" preserveAspectRatio="none" style="width:1150px;height:494px;" version="1.1" viewBox="0 0 1150 494" width="1150px" zoomAndPan="magnify"><defs><filter height="300%" id="f1kfig5oob732x" width="300%" x="-1" y="-1"><feGaussianBlur result="blurOut" stdDeviation="2.0"/><feColorMatrix in="blurOut" result="blurOut2" type="matrix" values="0 0 0 0 0 0 0 0 0 0 0 0 0 0 0 0 0 0 .4 0"/><feOffset dx="4.0" dy="4.0" in="blurOut2" result="blurOut3"/><feBlend in="SourceGraphic" in2="blurOut3" mode="normal"/></filter></defs><g><!--cluster moban--><polygon fill="#FFFFFF" filter="url(#f1kfig5oob732x)" points="14,99,69,99,76,121.4883,858,121.4883,858,170,14,170,14,99" style="stroke: #000000; stroke-width: 2.0;"/><line style="stroke: #000000; stroke-width: 2.0;" x1="14" x2="76" y1="121.4883" y2="121.4883"/><text fill="#000000" font-family="sans-serif" font-size="14" font-weight="bold" lengthAdjust="spacingAndGlyphs" textLength="49" x="18" y="114.5352">moban</text><!--cluster pyfilesystem2--><polygon fill="#FFFFFF" filter="url(#f1kfig5oob732x)" points="269,217,377,217,384,239.4883,548,239.4883,548,487,269,487,269,217" style="stroke: #000000; stroke-width: 2.0;"/><line style="stroke: #000000; stroke-width: 2.0;" x1="269" x2="384" y1="239.4883" y2="239.4883"/><text fill="#000000" font-family="sans-serif" font-size="14" font-weight="bold" lengthAdjust="spacingAndGlyphs" textLength="102" x="273" y="232.5352">pyfilesystem2</text><!--cluster moban-mako--><polygon fill="#FFFFFF" filter="url(#f1kfig5oob732x)" points="877,99,981,99,988,121.4883,1003,121.4883,1003,170,877,170,877,99" style="stroke: #000000; stroke-width: 2.0;"/><line style="stroke: #000000; stroke-width: 2.0;" x1="877" x2="988" y1="121.4883" y2="121.4883"/><text fill="#000000" font-family="sans-serif" font-size="14" font-weight="bold" lengthAdjust="spacingAndGlyphs" textLength="98" x="881" y="114.5352">moban-mako</text><!--cluster moban-haml--><polygon fill="#FFFFFF" filter="url(#f1kfig5oob732x)" points="1021,99,1121,99,1128,121.4883,1143,121.4883,1143,170,1021,170,1021,99" style="stroke: #000000; stroke-width: 2.0;"/><line style="stroke: #000000; stroke-width: 2.0;" x1="1021" x2="1128" y1="121.4883" y2="121.4883"/><text fill="#000000" font-family="sans-serif" font-size="14" font-weight="bold" lengthAdjust="spacingAndGlyphs" textLength="94" x="1025" y="114.5352">moban-haml</text><!--cluster moremobans/gitfs2--><polygon fill="#FFFFFF" filter="url(#f1kfig5oob732x)" points="660,319,811,319,818,341.4883,821,341.4883,821,390,660,390,660,319" style="stroke: #000000; stroke-width: 2.0;"/><line style="stroke: #000000; stroke-width: 2.0;" x1="660" x2="818" y1="341.4883" y2="341.4883"/><text fill="#000000" font-family="sans-serif" font-size="14" font-weight="bold" lengthAdjust="spacingAndGlyphs" textLength="145" x="664" y="334.5352">moremobans/gitfs2</text><!--cluster moremobans/pypifs--><polygon fill="#FFFFFF" filter="url(#f1kfig5oob732x)" points="829,319,982,319,989,341.4883,992,341.4883,992,390,829,390,829,319" style="stroke: #000000; stroke-width: 2.0;"/><line style="stroke: #000000; stroke-width: 2.0;" x1="829" x2="989" y1="341.4883" y2="341.4883"/><text fill="#000000" font-family="sans-serif" font-size="14" font-weight="bold" lengthAdjust="spacingAndGlyphs" textLength="147" x="833" y="334.5352">moremobans/pypifs</text><!--entity engine factory--><rect fill="#FEFECE" filter="url(#f1kfig5oob732x)" height="36.4883" style="stroke: #A80036; stroke-width: 1.5;" width="118" x="22" y="126"/><rect fill="#FEFECE" height="5" style="stroke: #A80036; stroke-width: 1.5;" width="10" x="17" y="131"/><rect fill="#FEFECE" height="5" style="stroke: #A80036; stroke-width: 1.5;" width="10" x="17" y="152.4883"/><text fill="#000000" font-family="sans-serif" font-size="14" lengthAdjust="spacingAndGlyphs" textLength="98" x="32" y="149.5352">engine factory</text><!--entity jinja2 engine--><rect fill="#FEFECE" filter="url(#f1kfig5oob732x)" height="36.4883" style="stroke: #A80036; stroke-width: 1.5;" width="109" x="175.5" y="126"/><rect fill="#FEFECE" height="5" style="stroke: #A80036; stroke-width: 1.5;" width="10" x="170.5" y="131"/><rect fill="#FEFECE" height="5" style="stroke: #A80036; stroke-width: 1.5;" width="10" x="170.5" y="152.4883"/><text fill="#000000" font-family="sans-serif" font-size="14" lengthAdjust="spacingAndGlyphs" textLength="89" x="185.5" y="149.5352">jinja2 engine</text><!--entity data loader--><rect fill="#FEFECE" filter="url(#f1kfig5oob732x)" height="36.4883" style="stroke: #A80036; stroke-width: 1.5;" width="98" x="752" y="126"/><rect fill="#FEFECE" height="5" style="stroke: #A80036; stroke-width: 1.5;" width="10" x="747" y="131"/><rect fill="#FEFECE" height="5" style="stroke: #A80036; stroke-width: 1.5;" width="10" x="747" y="152.4883"/><text fill="#000000" font-family="sans-serif" font-size="14" lengthAdjust="spacingAndGlyphs" textLength="78" x="762" y="149.5352">data loader</text><!--entity yaml loader--><rect fill="#FEFECE" filter="url(#f1kfig5oob732x)" height="36.4883" style="stroke: #A80036; stroke-width: 1.5;" width="100" x="320" y="126"/><rect fill="#FEFECE" height="5" style="stroke: #A80036; stroke-width: 1.5;" width="10" x="315" y="131"/><rect fill="#FEFECE" height="5" style="stroke: #A80036; stroke-width: 1.5;" width="10" x="315" y="152.4883"/><text fill="#000000" font-family="sans-serif" font-size="14" lengthAdjust="spacingAndGlyphs" textLength="80" x="330" y="149.5352">yaml loader</text><!--entity json loader--><rect fill="#FEFECE" filter="url(#f1kfig5oob732x)" height="36.4883" style="stroke: #A80036; stroke-width: 1.5;" width="97" x="619.5" y="126"/><rect fill="#FEFECE" height="5" style="stroke: #A80036; stroke-width: 1.5;" width="10" x="614.5" y="131"/><rect fill="#FEFECE" height="5" style="stroke: #A80036; stroke-width: 1.5;" width="10" x="614.5" y="152.4883"/><text fill="#000000" font-family="sans-serif" font-size="14" lengthAdjust="spacingAndGlyphs" textLength="77" x="629.5" y="149.5352">json loader</text><!--entity file system layer--><rect fill="#FEFECE" filter="url(#f1kfig5oob732x)" height="36.4883" style="stroke: #A80036; stroke-width: 1.5;" width="129" x="455.5" y="126"/><rect fill="#FEFECE" height="5" style="stroke: #A80036; stroke-width: 1.5;" width="10" x="450.5" y="131"/><rect fill="#FEFECE" height="5" style="stroke: #A80036; stroke-width: 1.5;" width="10" x="450.5" y="152.4883"/><text fill="#000000" font-family="sans-serif" font-size="14" lengthAdjust="spacingAndGlyphs" textLength="109" x="465.5" y="149.5352">file system layer</text><!--entity fs--><rect fill="#FEFECE" filter="url(#f1kfig5oob732x)" height="36.4883" style="stroke: #A80036; stroke-width: 1.5;" width="32" x="504" y="244"/><rect fill="#FEFECE" height="5" style="stroke: #A80036; stroke-width: 1.5;" width="10" x="499" y="249"/><rect fill="#FEFECE" height="5" style="stroke: #A80036; stroke-width: 1.5;" width="10" x="499" y="270.4883"/><text fill="#000000" font-family="sans-serif" font-size="14" lengthAdjust="spacingAndGlyphs" textLength="12" x="514" y="267.5352">fs</text><!--entity tar--><rect fill="#FEFECE" filter="url(#f1kfig5oob732x)" height="36.4883" style="stroke: #A80036; stroke-width: 1.5;" width="39" x="277.5" y="443"/><rect fill="#FEFECE" height="5" style="stroke: #A80036; stroke-width: 1.5;" width="10" x="272.5" y="448"/><rect fill="#FEFECE" height="5" style="stroke: #A80036; stroke-width: 1.5;" width="10" x="272.5" y="469.4883"/><text fill="#000000" font-family="sans-serif" font-size="14" lengthAdjust="spacingAndGlyphs" textLength="19" x="287.5" y="466.5352">tar</text><!--entity zip--><rect fill="#FEFECE" filter="url(#f1kfig5oob732x)" height="36.4883" style="stroke: #A80036; stroke-width: 1.5;" width="41" x="351.5" y="443"/><rect fill="#FEFECE" height="5" style="stroke: #A80036; stroke-width: 1.5;" width="10" x="346.5" y="448"/><rect fill="#FEFECE" height="5" style="stroke: #A80036; stroke-width: 1.5;" width="10" x="346.5" y="469.4883"/><text fill="#000000" font-family="sans-serif" font-size="14" lengthAdjust="spacingAndGlyphs" textLength="21" x="361.5" y="466.5352">zip</text><!--entity file--><rect fill="#FEFECE" filter="url(#f1kfig5oob732x)" height="36.4883" style="stroke: #A80036; stroke-width: 1.5;" width="41" x="427.5" y="443"/><rect fill="#FEFECE" height="5" style="stroke: #A80036; stroke-width: 1.5;" width="10" x="422.5" y="448"/><rect fill="#FEFECE" height="5" style="stroke: #A80036; stroke-width: 1.5;" width="10" x="422.5" y="469.4883"/><text fill="#000000" font-family="sans-serif" font-size="14" lengthAdjust="spacingAndGlyphs" textLength="21" x="437.5" y="466.5352">file</text><!--entity s3--><rect fill="#FEFECE" filter="url(#f1kfig5oob732x)" height="36.4883" style="stroke: #A80036; stroke-width: 1.5;" width="36" x="504" y="443"/><rect fill="#FEFECE" height="5" style="stroke: #A80036; stroke-width: 1.5;" width="10" x="499" y="448"/><rect fill="#FEFECE" height="5" style="stroke: #A80036; stroke-width: 1.5;" width="10" x="499" y="469.4883"/><text fill="#000000" font-family="sans-serif" font-size="14" lengthAdjust="spacingAndGlyphs" textLength="16" x="514" y="466.5352">s3</text><!--entity mako engine--><rect fill="#FEFECE" filter="url(#f1kfig5oob732x)" height="36.4883" style="stroke: #A80036; stroke-width: 1.5;" width="109" x="885.5" y="126"/><rect fill="#FEFECE" height="5" style="stroke: #A80036; stroke-width: 1.5;" width="10" x="880.5" y="131"/><rect fill="#FEFECE" height="5" style="stroke: #A80036; stroke-width: 1.5;" width="10" x="880.5" y="152.4883"/><text fill="#000000" font-family="sans-serif" font-size="14" lengthAdjust="spacingAndGlyphs" textLength="89" x="895.5" y="149.5352">mako engine</text><!--entity haml engine--><rect fill="#FEFECE" filter="url(#f1kfig5oob732x)" height="36.4883" style="stroke: #A80036; stroke-width: 1.5;" width="105" x="1029.5" y="126"/><rect fill="#FEFECE" height="5" style="stroke: #A80036; stroke-width: 1.5;" width="10" x="1024.5" y="131"/><rect fill="#FEFECE" height="5" style="stroke: #A80036; stroke-width: 1.5;" width="10" x="1024.5" y="152.4883"/><text fill="#000000" font-family="sans-serif" font-size="14" lengthAdjust="spacingAndGlyphs" textLength="85" x="1039.5" y="149.5352">haml engine</text><!--entity git repo--><rect fill="#FEFECE" filter="url(#f1kfig5oob732x)" height="36.4883" style="stroke: #A80036; stroke-width: 1.5;" width="74" x="687" y="346"/><rect fill="#FEFECE" height="5" style="stroke: #A80036; stroke-width: 1.5;" width="10" x="682" y="351"/><rect fill="#FEFECE" height="5" style="stroke: #A80036; stroke-width: 1.5;" width="10" x="682" y="372.4883"/><text fill="#000000" font-family="sans-serif" font-size="14" lengthAdjust="spacingAndGlyphs" textLength="54" x="697" y="369.5352">git repo</text><!--entity python package--><rect fill="#FEFECE" filter="url(#f1kfig5oob732x)" height="36.4883" style="stroke: #A80036; stroke-width: 1.5;" width="129" x="837.5" y="346"/><rect fill="#FEFECE" height="5" style="stroke: #A80036; stroke-width: 1.5;" width="10" x="832.5" y="351"/><rect fill="#FEFECE" height="5" style="stroke: #A80036; stroke-width: 1.5;" width="10" x="832.5" y="372.4883"/><text fill="#000000" font-family="sans-serif" font-size="14" lengthAdjust="spacingAndGlyphs" textLength="109" x="847.5" y="369.5352">python package</text><!--entity lml--><rect fill="#FEFECE" filter="url(#f1kfig5oob732x)" height="36.4883" style="stroke: #A80036; stroke-width: 1.5;" width="41" x="647.5" y="8"/><rect fill="#FEFECE" height="5" style="stroke: #A80036; stroke-width: 1.5;" width="10" x="642.5" y="13"/><rect fill="#FEFECE" height="5" style="stroke: #A80036; stroke-width: 1.5;" width="10" x="642.5" y="34.4883"/><text fill="#000000" font-family="sans-serif" font-size="14" lengthAdjust="spacingAndGlyphs" textLength="21" x="657.5" y="31.5352">lml</text><!--entity fs.dropbox--><rect fill="#FEFECE" filter="url(#f1kfig5oob732x)" height="36.4883" style="stroke: #A80036; stroke-width: 1.5;" width="96" x="556" y="346"/><rect fill="#FEFECE" height="5" style="stroke: #A80036; stroke-width: 1.5;" width="10" x="551" y="351"/><rect fill="#FEFECE" height="5" style="stroke: #A80036; stroke-width: 1.5;" width="10" x="551" y="372.4883"/><text fill="#000000" font-family="sans-serif" font-size="14" lengthAdjust="spacingAndGlyphs" textLength="76" x="566" y="369.5352">fs.dropbox</text><!--link engine factory to lml--><path d="M109.1889,125.7837 C123.4669,117.0113 141.2806,106.7432 158,99 C188.357,84.9408 196.3792,81.4226 229,74 C383.0999,38.936 573.6596,29.2185 642.0557,26.763 " fill="none" id="engine factory-lml" style="stroke: #A80036; stroke-width: 1.0;"/><polygon fill="#A80036" points="647.1497,26.5856,638.0158,22.9015,642.1527,26.7597,638.2945,30.8966,647.1497,26.5856" style="stroke: #A80036; stroke-width: 1.0;"/><text fill="#000000" font-family="sans-serif" font-size="13" lengthAdjust="spacingAndGlyphs" textLength="92" x="230" y="87.5684">get all engines</text><!--link lml to jinja2 engine--><path d="M641.9753,27.4692 C580.4443,31.7219 422.1517,47.2521 302,99 C285.3478,106.1719 268.0761,116.8403 254.6244,125.9897 " fill="none" id="lml-jinja2 engine" style="stroke: #A80036; stroke-width: 1.0;"/><polygon fill="#A80036" points="647.2783,27.1143,638.0312,23.7244,642.2895,27.4483,638.5656,31.7066,647.2783,27.1143" style="stroke: #A80036; stroke-width: 1.0;"/><text fill="#000000" font-family="sans-serif" font-size="13" lengthAdjust="spacingAndGlyphs" textLength="48" x="370" y="87.5684">register</text><!--link lml to mako engine--><path d="M693.4565,30.0347 C728.4415,36.2261 792.7577,49.9526 843,74 C871.6604,87.7177 900.7104,110.042 919.447,125.7854 " fill="none" id="lml-mako engine" style="stroke: #A80036; stroke-width: 1.0; stroke-dasharray: 7.0,7.0;"/><polygon fill="#A80036" points="688.5127,29.1756,696.6949,34.6576,693.4389,30.0317,698.0647,26.7757,688.5127,29.1756" style="stroke: #A80036; stroke-width: 1.0;"/><text fill="#000000" font-family="sans-serif" font-size="13" lengthAdjust="spacingAndGlyphs" textLength="48" x="872" y="87.5684">register</text><!--link lml to haml engine--><path d="M693.7754,27.6272 C752.5737,32.1449 900.0921,48.0796 1011,99 C1027.0478,106.3679 1043.7871,116.824 1056.979,125.803 " fill="none" id="lml-haml engine" style="stroke: #A80036; stroke-width: 1.0; stroke-dasharray: 7.0,7.0;"/><polygon fill="#A80036" points="688.6975,27.2487,697.3752,31.9067,693.6837,27.6204,697.97,23.9289,688.6975,27.2487" style="stroke: #A80036; stroke-width: 1.0;"/><text fill="#000000" font-family="sans-serif" font-size="13" lengthAdjust="spacingAndGlyphs" textLength="48" x="985" y="87.5684">register</text><!--link lml to yaml loader--><path d="M642.2163,31.7024 C598.7305,41.8573 508.6418,65.2267 438,99 C422.546,106.3884 406.5094,116.8457 393.8934,125.8201 " fill="none" id="lml-yaml loader" style="stroke: #A80036; stroke-width: 1.0; stroke-dasharray: 7.0,7.0;"/><polygon fill="#A80036" points="647.284,30.5297,637.6138,28.6621,642.4128,31.6571,639.4177,36.456,647.284,30.5297" style="stroke: #A80036; stroke-width: 1.0;"/><text fill="#000000" font-family="sans-serif" font-size="13" lengthAdjust="spacingAndGlyphs" textLength="48" x="493" y="87.5684">register</text><!--link lml to json loader--><path d="M668,49.3689 C668,71.8879 668,105.4788 668,125.9941 " fill="none" id="lml-json loader" style="stroke: #A80036; stroke-width: 1.0; stroke-dasharray: 7.0,7.0;"/><polygon fill="#A80036" points="668,44.1789,664,53.1789,668,49.1789,672,53.1789,668,44.1789" style="stroke: #A80036; stroke-width: 1.0;"/><text fill="#000000" font-family="sans-serif" font-size="13" lengthAdjust="spacingAndGlyphs" textLength="48" x="669" y="87.5684">register</text><!--link data loader to lml--><path d="M782.1759,125.8439 C767.1783,111.5224 745.5306,91.1688 726,74 C715.2538,64.5533 703.0925,54.4087 692.6914,45.8905 " fill="none" id="data loader-lml" style="stroke: #A80036; stroke-width: 1.0;"/><polygon fill="#A80036" points="688.6499,42.5897,693.0902,51.3808,692.5224,45.7525,698.1507,45.1848,688.6499,42.5897" style="stroke: #A80036; stroke-width: 1.0;"/><text fill="#000000" font-family="sans-serif" font-size="13" lengthAdjust="spacingAndGlyphs" textLength="89" x="745" y="87.5684">get all loaders</text><!--link file system layer to fs--><path d="M520,162.1789 C520,182.7674 520,216.3637 520,238.8204 " fill="none" id="file system layer-fs" style="stroke: #A80036; stroke-width: 1.0;"/><polygon fill="#A80036" points="520,243.9941,524,234.9941,520,238.9941,516,234.9941,520,243.9941" style="stroke: #A80036; stroke-width: 1.0;"/><text fill="#000000" font-family="sans-serif" font-size="13" lengthAdjust="spacingAndGlyphs" textLength="198" x="521" y="205.5684">access templates,config,output</text><!--link fs to git repo--><path d="M541.0317,267.5862 C570.9763,276.0617 627.0288,293.8834 670,319 C682.643,326.3898 695.2984,336.7393 705.1766,345.6501 " fill="none" id="fs-git repo" style="stroke: #A80036; stroke-width: 1.0; stroke-dasharray: 7.0,7.0;"/><polygon fill="#A80036" points="536.1045,266.2095,543.696,272.4839,540.92,267.5551,545.8489,264.7791,536.1045,266.2095" style="stroke: #A80036; stroke-width: 1.0;"/><!--link fs to python package--><path d="M541.616,263.248 C593.0482,266.7952 726.093,279.3916 829,319 C846.3681,325.6849 864.1797,336.5704 877.8608,345.9606 " fill="none" id="fs-python package" style="stroke: #A80036; stroke-width: 1.0; stroke-dasharray: 7.0,7.0;"/><polygon fill="#A80036" points="536.3243,262.8954,545.0384,267.4849,541.3132,263.2278,545.5703,259.5026,536.3243,262.8954" style="stroke: #A80036; stroke-width: 1.0;"/><!--link fs to tar--><path d="M499.0727,269.7409 C475.7224,279.0474 437.6042,296.2932 410,319 C364.9864,356.0276 326.0193,413.6957 307.8672,442.8353 " fill="none" id="fs-tar" style="stroke: #A80036; stroke-width: 1.0; stroke-dasharray: 7.0,7.0;"/><polygon fill="#A80036" points="503.8221,267.8764,493.9828,267.4418,499.1679,269.7035,496.9062,274.8886,503.8221,267.8764" style="stroke: #A80036; stroke-width: 1.0;"/><!--link fs to zip--><path d="M500.2749,281.639 C489.9312,292.3188 477.3047,305.9755 467,319 C433.5052,361.3354 399.6198,415.2465 382.8285,442.8764 " fill="none" id="fs-zip" style="stroke: #A80036; stroke-width: 1.0; stroke-dasharray: 7.0,7.0;"/><polygon fill="#A80036" points="503.9739,277.8458,494.8267,281.4968,500.4831,281.4256,500.5543,287.082,503.9739,277.8458" style="stroke: #A80036; stroke-width: 1.0;"/><!--link fs to file--><path d="M511.6247,285.1483 C497.1317,325.2055 467.6704,406.6331 454.5537,442.8864 " fill="none" id="fs-file" style="stroke: #A80036; stroke-width: 1.0; stroke-dasharray: 7.0,7.0;"/><polygon fill="#A80036" points="513.4835,280.0109,506.6601,287.1131,511.7824,284.7126,514.1828,289.8349,513.4835,280.0109" style="stroke: #A80036; stroke-width: 1.0;"/><!--link fs to s3--><path d="M520.2326,285.1483 C520.6352,325.2055 521.4536,406.6331 521.818,442.8864 " fill="none" id="fs-s3" style="stroke: #A80036; stroke-width: 1.0; stroke-dasharray: 7.0,7.0;"/><polygon fill="#A80036" points="520.181,280.0109,516.272,289.0508,520.2314,285.0106,524.2716,288.9701,520.181,280.0109" style="stroke: #A80036; stroke-width: 1.0;"/><!--link fs to fs.dropbox--><path d="M538.3596,284.2938 C553.5795,302.7751 574.9417,328.7149 589.1125,345.9223 " fill="none" id="fs-fs.dropbox" style="stroke: #A80036; stroke-width: 1.0; stroke-dasharray: 7.0,7.0;"/><polygon fill="#A80036" points="535.0175,280.2356,537.6511,289.7258,538.196,284.0953,543.8266,284.6402,535.0175,280.2356" style="stroke: #A80036; stroke-width: 1.0;"/><!--
@startuml

package "moban" {
[engine factory]
[jinja2 engine]
[data loader]
[yaml loader]
[json loader]
[file system layer]
}

[lml]

package "pyfilesystem2" {
[fs]
[tar]
[zip]
[file]
[s3]
}

package "moban-mako" {
[mako engine]
}

package "moban-haml" {
[haml engine]
}

package "moremobans/gitfs2" {
[git repo]
}

package "moremobans/pypifs" {
[python package]
}

[fs.dropbox]


[engine factory] -> [lml] : get all engines
[lml] <- - [jinja2 engine] : register
[lml] <.. [mako engine] : register
[lml] <.. [haml engine] : register
[lml] <.. [yaml loader] : register
[lml] <.. [json loader] : register
[data loader] -> [lml] : get all loaders
[file system layer] -> [fs] : access templates,config,output
[fs] <.. [git repo]
[fs] <.. [python package]
[fs] <.. [tar]
[fs] <.. [zip]
[fs] <.. [file]
[fs] <.. [s3]
[fs] <.. [fs.dropbox]
@enduml

PlantUML version 1.2017.13(Wed May 10 17:52:33 BST 2017)
(GPL source distribution)
Java Runtime: Java(TM) SE Runtime Environment
JVM: Java HotSpot(TM) 64-Bit Server VM
Java Version: 1.8.0_131-b11
Operating System: Mac OS X
OS Version: 10.14.6
Default Encoding: UTF-8
Language: en
Country: GB
--></g></svg>